<?xml version="1.0" standalone="no"?><!DOCTYPE svg PUBLIC "-//W3C//DTD SVG 1.1//EN" "http://www.w3.org/Graphics/SVG/1.1/DTD/svg11.dtd"><svg t="1705978850355" class="icon" viewBox="0 0 1024 1024" version="1.1" xmlns="http://www.w3.org/2000/svg" p-id="2433" width="16" height="16" xmlns:xlink="http://www.w3.org/1999/xlink"><path d="M26.564738 707.028587c0 170.262396 138.02638 308.274993 308.274993 308.274993s308.274993-138.02638 308.274993-308.274993c0-170.262396-138.02638-308.274993-308.274993-308.274993S26.564738 536.779973 26.564738 707.028587zM880.936312 93.496851a47.664926 47.664926 0 1 0 0 95.329852 47.664926 47.664926 0 1 0 0-95.329852z m0 0" fill="#FFCA5F" p-id="2434"></path><path d="M383.889744 451.235316c-24.683499 0.013782-45.79747 18.481615-49.146487 43.068641l-0.468587 5.388748-0.013782 48.04393c0.165384 27.260727 22.395693 49.339435 49.628856 49.339435h0.303204c24.40786-0.151602 45.397793-18.481615 48.843283-42.627618l0.482369-5.54035 0.013782-48.030148c-0.013782-27.370983-22.285437-49.642638-49.642638-49.642638z" fill="#5C1CF7" p-id="2435"></path><path d="M902.160538 953.629287l-45.700996-91.45712 5.264711-5.74708c77.509771-84.4421 120.096043-194.077631 119.916878-308.688452 0-122.121992-47.561561-236.939542-133.919354-323.297335-86.357793-86.357793-201.175343-133.919354-323.297336-133.919354s-236.939542 47.561561-323.297335 133.919354C114.769314 310.783311 67.221534 425.600861 67.221534 547.722853c0 242.548802 189.446891 443.062611 431.334159 456.513809l12.913701 0.523715 12.968829 0.192947H870.296635c9.495774 0 18.412705-3.693567 25.138304-10.405383 6.725599-6.711817 10.432948-15.64253 10.432948-25.152086 0-3.762476-0.592624-7.483607-1.75031-11.053136l-1.957039-4.713432z m-89.472516-19.84603H524.286622l-12.155693-0.179165-11.756016-0.468587C297.38035 921.186541 138.364038 751.902665 138.364038 547.722853c0-209.954455 164.391279-379.458843 374.207914-385.881238l12.086783-0.192947 11.769798 0.179165c209.761507 6.518869 374.070094 176.023257 374.070094 385.881238 0.165384 91.18148-32.236016 179.675478-91.18148 249.177928l-10.074617 11.480377-38.355208 41.800699 41.8007 83.615182z" fill="#5C1CF7" p-id="2436"></path><path d="M664.972921 451.235316c-24.683499 0.013782-45.79747 18.481615-49.146488 43.068641l-0.468586 5.388748-0.013782 48.04393c0.165384 27.260727 22.395693 49.339435 49.628856 49.339435h0.303203c24.40786-0.151602 45.397793-18.481615 48.843284-42.627618l0.482369-5.54035 0.013782-48.030148c0-27.370983-22.271655-49.642638-49.642638-49.642638z" fill="#5C1CF7" p-id="2437"></path></svg>