<?xml version="1.0" standalone="no"?><!DOCTYPE svg PUBLIC "-//W3C//DTD SVG 1.1//EN" "http://www.w3.org/Graphics/SVG/1.1/DTD/svg11.dtd"><svg t="1711965178213" class="icon" viewBox="0 0 1024 1024" version="1.1" xmlns="http://www.w3.org/2000/svg" p-id="1490" width="16" height="16" xmlns:xlink="http://www.w3.org/1999/xlink"><path d="M237.568 679.424c-5.632 8.192-6.656 18.944-2.048 27.648 4.608 8.704 13.824 14.336 23.552 14.848h372.736c9.728 0 19.456-5.632 23.552-14.336 4.096-8.704 3.584-18.944-2.048-26.624l-119.808-171.52c-5.12-7.168-13.312-11.264-22.016-11.264-8.704 0-16.896 4.096-22.016 11.264l-98.304 140.288-44.544-62.464c-5.12-7.168-12.8-11.264-21.504-11.264s-16.384 4.096-21.504 11.264l-66.56 93.184v-1.024z" fill="#27B5FF" p-id="1491"></path><path d="M237.568 680.448c-7.68 11.776-4.608 27.648 7.168 35.84 4.608 3.072 9.728 5.12 15.36 5.12 8.704 0 16.896-4.096 21.504-11.264l111.616-156.16 33.28 46.592-55.296 79.872c-5.632 8.192-6.144 18.944-1.536 27.648 4.608 8.704 13.824 14.336 23.552 14.336 8.704 0 16.896-4.608 22.016-11.264L579.584 476.16l164.352 235.008c8.704 11.264 24.576 13.824 36.352 5.632s14.848-24.064 7.168-35.84l-186.368-266.24c-5.12-7.168-13.312-11.264-22.016-11.264-8.704 0-16.896 4.096-22.016 11.264l-98.816 141.312-45.056-61.44c-5.12-7.168-12.8-11.264-21.504-11.264-8.704 0-16.384 4.096-21.504 11.264l-132.608 185.856zM691.712 283.136c-14.848 0-26.624-11.776-26.624-26.624 0-14.848 11.776-26.624 26.624-26.624h26.624c14.848 0 26.624 11.776 26.624 26.624 0 14.848-11.776 26.624-26.624 26.624h-26.624z" fill="#1485EE" p-id="1492"></path><path d="M885.248 229.376h-59.904c-14.848 0-26.624 11.776-26.624 26.624 0 14.848 11.776 26.624 26.624 26.624h59.904c14.848 0 26.624 11.776 26.624 26.624v506.368c0 14.848-11.776 26.624-26.624 26.624H139.264c-14.848 0-26.624-11.776-26.624-26.624V309.76c0-14.848 11.776-26.624 26.624-26.624h68.608c10.24 63.488 65.024 112.128 131.584 112.128 66.048 0 121.344-48.64 131.584-112.128h88.064c14.848 0 26.624-11.776 26.624-26.624 0-14.848-11.776-26.624-26.624-26.624H468.48c-14.336-58.368-66.56-101.376-129.536-101.376S224.256 171.52 209.92 229.376H139.264c-44.032 0-79.872 35.84-79.872 79.872v506.368c0 44.032 35.84 79.872 79.872 79.872h745.984c20.992 0 41.472-8.192 56.32-23.552 14.848-14.848 23.552-35.328 23.552-56.32V309.76c0-44.544-35.84-80.384-79.872-80.384zM338.944 181.76c44.032 0 79.872 35.84 79.872 79.872 0 20.992-8.192 41.472-23.552 56.32-14.848 14.848-35.328 23.552-56.32 23.552-44.032 0-79.872-35.84-79.872-79.872s35.84-79.872 79.872-79.872z" fill="#1485EE" p-id="1493"></path></svg>